<svg preserveAspectRatio="none" width="100%" height="100%" overflow="visible" style="display: block;" viewBox="0 0 20 20" fill="none" xmlns="http://www.w3.org/2000/svg">
<g id="Icon Wrapper" clip-path="url(#clip0_0_15)">
<path id="Icon" d="M7.35 12.9C7.35 14.0598 8.2902 15 9.45 15H11.4C12.6426 15 13.65 13.9926 13.65 12.75C13.65 11.5074 12.6426 10.5 11.4 10.5H9.6C8.35736 10.5 7.35 9.49264 7.35 8.25C7.35 7.00736 8.35736 6 9.6 6H11.55C12.7098 6 13.65 6.9402 13.65 8.1M10.5 4.65V6M10.5 15V16.35M19.5 10.5C19.5 15.4706 15.4706 19.5 10.5 19.5C5.52944 19.5 1.5 15.4706 1.5 10.5C1.5 5.52944 5.52944 1.5 10.5 1.5C15.4706 1.5 19.5 5.52944 19.5 10.5Z" stroke="var(--stroke-0, black)" stroke-width="1.5" stroke-linecap="round" stroke-linejoin="round"/>
</g>
<defs>
<clipPath id="clip0_0_15">
<rect width="20" height="20" fill="white"/>
</clipPath>
</defs>
</svg>
