<svg preserveAspectRatio="none" width="100%" height="100%" overflow="visible" style="display: block;" viewBox="0 0 94.9471 21.6244" fill="none" xmlns="http://www.w3.org/2000/svg">
<g id="Vector">
<path d="M94.9471 13.9364L94.9439 5.25361C94.9439 0.471282 91.2705 0 90.2311 0H81.7328C80.6917 0 77.0194 0.471282 77.0194 5.25361V13.7616C77.0194 18.5439 80.6928 19.0152 81.7328 19.0152L86.3529 19.0131L87.6241 21.6244H94.1539L92.5099 18.1984C94.2725 17.4371 94.9471 15.8632 94.9471 13.9354V13.9364ZM88.6199 12.8776C88.6199 14.09 88.3052 14.6956 87.671 14.6956H84.295C83.6603 14.6956 83.3461 14.091 83.3461 12.8776V6.13863C83.3461 4.92626 83.6603 4.32059 84.295 4.32059H87.671C88.3052 4.32059 88.6199 4.92518 88.6199 6.13863V12.8776Z" fill="var(--fill-0, #000103)"/>
<path d="M58.062 19.0152L74.795 19.0141V14.6839L64.3261 14.685V11.4605H74.2308V7.55576H64.3261V4.31207L74.795 4.30997V0.00210161L58.062 0V19.0152Z" fill="var(--fill-0, #000103)"/>
<path d="M39.1052 19.027L55.8376 19.0248V14.6947L45.3687 14.6968V11.4606H55.2734V7.55581H45.3687V4.3228L55.8376 4.32172V0.0128243L39.1052 0.0118006V19.027Z" fill="var(--fill-0, #000103)"/>
<path d="M34.4625 12.2748C36.0768 11.5604 36.885 10.1422 36.885 8.01815V4.46522C36.885 0.136061 34.07 0.0134714 33.5113 0.0134714H18.9575V19.0127H25.2219V12.3995H27.9292L31.1473 19.0084H37.6773L34.4475 12.2801C34.4475 12.2801 34.4571 12.2759 34.4625 12.2737V12.2748ZM30.8743 6.67781C30.8743 7.89017 30.5598 8.49585 29.9254 8.49585H25.256V4.32237H29.9254C30.5598 4.32237 30.8743 4.92696 30.8743 6.14041V6.67888V6.67781Z" fill="var(--fill-0, #000103)"/>
<path d="M16.7334 4.32172V0.0128243L0 0.0118006V19.027L6.26343 19.0259V11.4606H16.1693V7.55581H6.26343V4.3228L16.7334 4.32172Z" fill="var(--fill-0, #000103)"/>
</g>
</svg>
