<svg preserveAspectRatio="none" width="100%" height="100%" overflow="visible" style="display: block;" viewBox="0 0 20 20" fill="none" xmlns="http://www.w3.org/2000/svg">
<g id="Icon Wrapper">
<g id="Vector">
<path d="M8 3H3.83333C3.3731 3 3 3.3731 3 3.83333V9.66667C3 10.1269 3.3731 10.5 3.83333 10.5H8C8.46024 10.5 8.83333 10.1269 8.83333 9.66667V3.83333C8.83333 3.3731 8.46024 3 8 3Z" stroke="var(--stroke-0, black)" stroke-width="1.5" stroke-linecap="round" stroke-linejoin="round"/>
<path d="M17.1667 3H13C12.5398 3 12.1667 3.3731 12.1667 3.83333V6.33333C12.1667 6.79357 12.5398 7.16667 13 7.16667H17.1667C17.6269 7.16667 18 6.79357 18 6.33333V3.83333C18 3.3731 17.6269 3 17.1667 3Z" stroke="var(--stroke-0, black)" stroke-width="1.5" stroke-linecap="round" stroke-linejoin="round"/>
<path d="M17.1667 10.5H13C12.5398 10.5 12.1667 10.8731 12.1667 11.3333V17.1667C12.1667 17.6269 12.5398 18 13 18H17.1667C17.6269 18 18 17.6269 18 17.1667V11.3333C18 10.8731 17.6269 10.5 17.1667 10.5Z" stroke="var(--stroke-0, black)" stroke-width="1.5" stroke-linecap="round" stroke-linejoin="round"/>
<path d="M8 13.8333H3.83333C3.3731 13.8333 3 14.2064 3 14.6667V17.1667C3 17.6269 3.3731 18 3.83333 18H8C8.46024 18 8.83333 17.6269 8.83333 17.1667V14.6667C8.83333 14.2064 8.46024 13.8333 8 13.8333Z" stroke="var(--stroke-0, black)" stroke-width="1.5" stroke-linecap="round" stroke-linejoin="round"/>
</g>
</g>
</svg>
