<svg preserveAspectRatio="none" width="100%" height="100%" overflow="visible" style="display: block;" viewBox="0 0 20 20" fill="none" xmlns="http://www.w3.org/2000/svg">
<g id="Frame 1171277450">
<path id="Icon" d="M6.85 12.4C6.85 13.5598 7.7902 14.5 8.95 14.5H10.9C12.1426 14.5 13.15 13.4926 13.15 12.25C13.15 11.0074 12.1426 10 10.9 10H9.1C7.85736 10 6.85 8.99264 6.85 7.75C6.85 6.50736 7.85736 5.5 9.1 5.5H11.05C12.2098 5.5 13.15 6.4402 13.15 7.6M10 4.15V5.5M10 14.5V15.85M19 10C19 14.9706 14.9706 19 10 19C5.02944 19 1 14.9706 1 10C1 5.02944 5.02944 1 10 1C14.9706 1 19 5.02944 19 10Z" stroke="var(--stroke-0, black)" stroke-width="1.5" stroke-linecap="round" stroke-linejoin="round"/>
</g>
</svg>
