<svg preserveAspectRatio="none" width="100%" height="100%" overflow="visible" style="display: block;" viewBox="0 0 31.0531 16.364" fill="none" xmlns="http://www.w3.org/2000/svg">
<g id="Eye">
<path id="Vector" d="M15.5728 0.133766L15.3581 0.153473L15.1434 0.0746447L14.9287 0.112651L14.7111 0.00989282L14.5006 0.116874L14.2788 3.92756e-05L14.0613 0.00285457L13.862 0.204148L13.6417 0.152065H13.4255L13.2164 0.216817L13.0143 0.330837L12.801 0.346321L12.5652 0.208371L12.3449 0.194295L12.1708 0.460341L11.9449 0.412481L11.7119 0.328022L11.5295 0.519462L11.2937 0.433595L11.0789 0.463156L10.8811 0.564507L10.6733 0.62222L10.4376 0.567322L10.2256 0.612367L10.0558 0.80803L9.83829 0.830553L9.65303 0.958649L9.41023 0.90375L9.23901 1.0783L9.04954 1.1881L8.84744 1.25425L8.63411 1.29789L8.38289 1.24018L8.27062 1.54564L7.96887 1.36687L7.79905 1.52312L7.60537 1.61884L7.40047 1.68781L7.26152 1.90177L6.99066 1.82998L6.84049 2.01439L6.61172 2.03832L6.50225 2.29873L6.29734 2.36911L6.0784 2.41416L5.90437 2.54085L5.65737 2.54366L5.56474 2.81112L5.37527 2.91106L5.13107 2.92514L5.02721 3.16021L4.84055 3.26579L4.5795 3.26297L4.376 3.34884L4.30723 3.62192L4.08127 3.67823L3.99566 3.91894L3.81041 4.03014L3.49884 3.98369V4.32293L3.22937 4.33701L3.01324 4.41724L2.9571 4.67766L2.77044 4.79168L2.70027 5.02957L2.54308 5.17456L2.34519 5.27872L2.14028 5.37867L1.95783 5.50395L1.82731 5.67709L1.80766 5.94595L1.51153 5.9741L1.55223 6.28942L1.23505 6.30772L1.22943 6.57799L1.02453 6.6906L0.902428 6.86937L0.773309 7.0411L0.620331 7.19876L0.652611 7.47747L0.569807 7.67736L0.357883 7.79842L0.339638 8.0349L0 8.15878L0.117891 8.41075L0.376128 8.50928L0.364901 8.76829L0.602086 8.87386L0.634366 9.11035L0.809799 9.25111L0.95997 9.40736L0.971197 9.66778L1.21119 9.75646L1.39645 9.88315L1.4975 10.076L1.64767 10.2308L1.63504 10.5264L1.92976 10.5518L2.11362 10.6728L2.22168 10.8643L2.32133 11.0656L2.39291 11.2992L2.69184 11.3006L2.73395 11.5695L2.90236 11.7061L3.13534 11.7666L3.322 11.8764L3.44691 12.0608L3.51989 12.3099L3.82584 12.2719L3.95356 12.4549L4.03215 12.7083L4.3353 12.659L4.50933 12.7815L4.66933 12.9265L4.73248 13.2165L4.98932 13.2179L5.13528 13.3868L5.37527 13.4093L5.56754 13.505L5.69105 13.7162L5.86788 13.84L6.13033 13.8105L6.2384 14.0611L6.41524 14.1906L6.63839 14.2257L6.87277 14.237L7.06644 14.3285L7.21661 14.5143L7.38924 14.6551L7.64186 14.6157L7.84958 14.672L7.99975 14.8747L8.20886 14.9324L8.37588 15.0999L8.59061 15.1393L8.84884 15.0534L9.02147 15.2139L9.24883 15.2097L9.46356 15.2378L9.61373 15.48L9.83688 15.4842L10.0572 15.4969L10.2818 15.4842L10.4516 15.6883L10.7084 15.5433L10.8993 15.6644L11.0874 15.8051L11.2796 15.9346L11.4972 15.9529L11.733 15.8671L11.9126 16.0768L12.1652 15.8783L12.3519 16.0698L12.5582 16.1514L12.7814 16.1106L12.9849 16.2162L13.2178 16.0726L13.4129 16.2767L13.6431 16.1416L13.8564 16.1669L14.0739 16.1233L14.2831 16.2105L14.4908 16.364L14.7153 16.1542L14.9258 16.3006L15.1406 16.3358L15.3567 16.2992L15.5728 16.3189L15.7862 16.1472L16.0009 16.2119L16.2156 16.2133L16.4346 16.3034L16.6451 16.2077L16.8612 16.2359L17.0844 16.3316L17.2865 16.1556L17.5012 16.15L17.7047 16.0191L17.9208 16.0304L18.1285 15.9769L18.3517 16.0318L18.5749 16.081L18.7952 16.0923L19.0155 16.1007L19.2008 15.9079L19.4015 15.8178L19.612 15.7812L19.8211 15.7376L20.0583 15.815L20.2604 15.7347L20.4723 15.6996L20.7025 15.7305L20.8821 15.5658L21.0969 15.5377L21.2821 15.4039L21.4913 15.3547L21.6793 15.2364L21.8926 15.2012L22.1411 15.2646L22.3067 15.0872L22.4863 14.9535L22.7586 15.0703L22.9691 15.0126L23.1291 14.8338L23.2737 14.6213L23.5277 14.6706L23.675 14.4721L23.9347 14.527L24.0933 14.3581L24.2561 14.2004L24.4624 14.1342L24.635 14.0033L24.9339 14.1131L25.1206 14.0033L25.2792 13.8415L25.4883 13.7753L25.5978 13.536L25.8195 13.4881L26.016 13.3966L26.1016 13.132L26.3262 13.0841L26.5451 13.025L26.757 12.9504L26.9283 12.8195L27.0756 12.6548L27.2848 12.5746L27.4377 12.4183L27.5332 12.1917L27.7184 12.0805L27.8925 11.9524L28.1114 11.8764L28.2321 11.6878L28.4047 11.5568L28.4903 11.3344L28.6461 11.188L28.9296 11.1669L28.9577 10.8924L29.1893 10.8164L29.3282 10.6503L29.418 10.442L29.6103 10.3223L29.6215 10.0507L29.7478 9.87892L29.8601 9.69593L30.1352 9.63681L30.232 9.43974L30.4313 9.31586L30.559 9.14132L30.465 8.82178L30.7064 8.72184L30.8903 8.58107L30.9169 8.34599L31.0053 8.15878L30.8608 8.00253L30.7373 7.82657L30.6096 7.65484L30.5773 7.42117L30.4369 7.25647L30.3148 7.07911L30.1015 6.96931L30.0552 6.73705L29.8671 6.61177L29.8405 6.36121L29.6103 6.27112L29.5892 6.00789L29.3549 5.92624L29.3099 5.6799L29.1191 5.56166L29.011 5.36881L28.75 5.32236L28.583 5.18723L28.6166 4.84376L28.3331 4.83109L28.263 4.58898L28.0931 4.45525L27.9107 4.33701L27.6497 4.31448L27.543 4.10756L27.4279 3.90767L27.209 3.83729L27.1009 3.62333L26.8904 3.54732L26.6434 3.52479L26.503 3.35165L26.3262 3.2306L26.1086 3.17147L26.0581 2.85194L25.7522 2.9378L25.6539 2.68302L25.4083 2.6788L25.3059 2.42401L25.1192 2.31422L24.9368 2.19597L24.6308 2.31985L24.5382 2.02565L24.3389 1.94119L24.1508 1.83561L23.8589 1.95386L23.741 1.69485L23.4772 1.76242L23.3172 1.59068L23.1515 1.42599L22.8877 1.51045L22.7137 1.36687L22.5354 1.22751L22.3235 1.18387L22.1186 1.11771H21.8926L21.7397 0.891081L21.5235 0.862928L21.3004 0.85589L21.1207 0.702456L20.9102 0.650373L20.6492 0.803807L20.4709 0.634889L20.2323 0.709495L20.0695 0.456118L19.8183 0.606736L19.6218 0.495532L19.4015 0.505385L19.2233 0.290015L19.0001 0.313945L18.7854 0.297053L18.5664 0.309722L18.3685 0.171773L18.1622 0.0830906L17.9363 0.153473L17.7258 0.0957594L17.5138 0.05353L17.2837 0.219633L17.0802 0.0633835L16.8668 0.0225617L16.6493 0.0380458L16.4332 0.0619759L16.217 0.0788676L16.0023 0.122505L15.7862 0.157696L15.5728 0.133766Z" fill="var(--fill-0, #FCFF00)"/>
<path id="Vector_2" d="M17.728 8.15863L17.8319 8.37118L17.9259 8.58655L17.8361 8.79911L17.7028 9.00885L17.9287 9.23126L17.8487 9.4424L17.6565 9.64511L17.7196 9.86188L17.6438 10.0702L17.8291 10.2983L17.8024 10.5108L17.5666 10.7022L17.7379 10.9345L17.6719 11.1414L17.7477 11.3667L17.6887 11.575L17.5175 11.765L17.4642 11.972L17.4558 12.1845L17.6031 12.428L17.5358 12.6335L17.4403 12.832L17.3575 13.0333L17.3224 13.2445L17.1274 13.4134L17.2256 13.6611L17.0684 13.8357L17.0235 14.044L16.9365 14.2383L16.9828 14.4832L16.9 14.6817L16.7835 14.8647L16.7007 15.0646L16.5618 15.2335L16.427 15.401L16.1927 15.4784L16.1562 15.7304L15.9793 15.8542L15.7492 15.8303L15.5737 15.9556L15.352 15.9697L15.1527 15.874L14.9351 15.7909L14.8523 15.5643L14.7681 15.363L14.6587 15.1842L14.5548 15.004L14.3064 14.8914L14.4201 14.6057L14.3597 14.4044L14.1689 14.2523L14.1029 14.0496L14.1197 13.8216L14.0145 13.633L14.0439 13.4049L13.9457 13.2135L13.8264 13.0235L13.8208 12.8081L13.7169 12.6124L13.7913 12.3816L13.7113 12.1803L13.5626 11.9902L13.5415 11.7763L13.4461 11.575L13.4334 11.3596L13.4166 11.1471L13.4812 10.9247L13.3717 10.722L13.4741 10.4995L13.3577 10.2954L13.4755 10.0716L13.251 9.87314L13.324 9.65496L13.3478 9.441L13.4545 9.22281L13.2889 9.01589L13.324 8.80052L13.4559 8.58515L13.3577 8.37259L13.3913 8.15863L13.2313 7.94326L13.3871 7.73211L13.4012 7.51956L13.265 7.30137L13.2636 7.08741L13.2903 6.87485L13.2763 6.65948L13.2973 6.44552L13.4405 6.24141L13.4082 6.02604L13.3296 5.80363L13.4026 5.59671L13.3633 5.37711L13.5934 5.18849L13.6075 4.97734L13.6131 4.76338L13.5696 4.54238L13.6047 4.33264L13.5345 4.1046L13.6019 3.89908L13.5864 3.67667L13.8068 3.50494L13.7085 3.26423L13.7815 3.06153L13.9878 2.89543L13.8531 2.63642L13.905 2.42668L14.0692 2.25354L14.2685 2.10011L14.2376 1.86221L14.3625 1.68485L14.3653 1.45259L14.5829 1.32449L14.4945 1.02748L14.7808 0.95991L14.778 0.684011L14.9548 0.544654L15.2046 0.523539L15.3309 0.272977L15.5737 0.423596L15.7688 0.427819L15.9232 0.557323L16.1197 0.629113L16.2348 0.803661L16.4649 0.892343L16.559 1.08801L16.6361 1.2893L16.6123 1.53564L16.8649 1.65107L16.9996 1.82843L17.0221 2.04802L17.1175 2.24228L17.2158 2.43653L17.0993 2.69273L17.241 2.87431L17.3365 3.06998L17.3421 3.28816L17.3042 3.51339L17.3393 3.72172L17.4937 3.90894L17.4614 4.13134L17.6256 4.31997L17.4558 4.56208L17.6298 4.75212L17.7505 4.9506L17.54 5.19271L17.6635 5.39119L17.5666 5.61501L17.7617 5.80926L17.8417 6.01759L17.627 6.24704L17.6424 6.4596L17.6733 6.66934L17.6621 6.88189L17.7856 7.09022L17.7154 7.30559L17.874 7.51393L17.8965 7.72789L17.7477 7.94326L17.728 8.15863Z" fill="var(--fill-0, black)"/>
</g>
</svg>
